#!OML:ASF H:\LiuWeirdWalks\Patient Classification 1\Patient 1\Session 1\male.ASF
:FULLY-SPECIFIED
:DEGREES
752
root -0.00471157 18.3108 -9.82041 5.2064 2.05319 4.46567
lowerback 10.7741 0.411843 11.4539
upperback 0.0109682 2.97631 14.8967
thorax -6.42893 1.39879 9.41845
lowerneck -22.7604 1.68775 11.946
upperneck 26.6817 3.22299 -17.1991
head 13.2672 0.366115 -8.4553
rclavicle -1.90833e-014 9.54166e-014
rhumerus -1.4154 -1.16115 -46.8265
rradius 42.6895
rwrist -16.3942
rhand -18.447 -1.21969
rfingers 7.12502
rthumb 7.83893 -31.0544
lclavicle -1.90833e-014 9.54166e-014
lhumerus -43.5334 -14.5115 102.628
lradius 47.7795
lwrist 4.15941
lhand -1.93147 -6.05861
lfingers 7.12502
lthumb 23.7391 22.4952
rfemur 1.59118 -3.15596 13.0198
rtibia 18.5285
rfoot -13.85 -13.4083
rtoes -11.3374
lfemur -22.1941 4.83691 -28.8151
ltibia 3.92456
lfoot -0.324223 14.4988
ltoes -16.7446
753
root 0.0163905 18.2935 -9.70138 5.22119 1.99903 4.406
lowerback 10.7535 0.402968 11.44
upperback 0.0245539 2.95507 14.9015
thorax -6.40107 1.38908 9.43465
lowerneck -22.7726 1.71432 11.9734
upperneck 26.6779 3.23898 -17.1641
head 13.2709 0.380089 -8.44253
rclavicle 6.36111e-015 9.54166e-015
rhumerus -1.64229 -1.20348 -46.8528
rradius 42.7446
rwrist -16.2869
rhand -18.4531 -1.15397
rfingers 7.12502
rthumb 7.83303 -30.9889
lclavicle 6.36111e-015 9.54166e-015
lhumerus -43.4717 -14.5303 102.513
lradius 47.7989
lwrist 4.06419
lhand -1.63754 -6.00176
lfingers 7.12502
lthumb 24.021 22.5151
rfemur 1.91452 -2.94474 13.1272
rtibia 18.5934
rfoot -13.8578 -14.0496
rtoes -11.7374
lfemur -22.1212 4.96555 -28.9118
ltibia 3.85599
lfoot -0.107542 14.3937
ltoes -15.8908
754
root 0.0370127 18.2743 -9.58133 5.20468 1.95097 4.35159
lowerback 10.7471 0.391218 11.4012
upperback 0.048962 2.92792 14.905
thorax -6.36984 1.37744 9.46408
lowerneck -22.7483 1.73114 11.9993
upperneck 26.6443 3.2423 -17.1314
head 13.252 0.388832 -8.42834
rclavicle 1.27222e-014 -9.54166e-015
rhumerus -1.93035 -1.27089 -46.8839
rradius 42.7953
rwrist -16.1684
rhand -18.4516 -1.10024
rfingers 7.12502
rthumb 7.83443 -30.9351
lclavicle 1.27222e-014 -9.54166e-015
lhumerus -43.399 -14.5549 102.387
lradius 47.7949
lwrist 3.94424
lhand -1.40266 -5.9764
lfingers 7.12502
lthumb 24.2462 22.5106
rfemur 2.23384 -2.75119 13.2398
rtibia 18.745
rfoot -13.8856 -14.7268
rtoes -12.1431
lfemur -22.1204 5.09537 -29.0018
ltibia 4.16261
lfoot -0.0399212 14.2227
ltoes -14.7112
755
root 0.0577454 18.253 -9.45956 5.15332 1.9103 4.31827
lowerback 10.7547 0.376789 11.3308
upperback 0.0888416 2.89288 14.9016
thorax -6.32969 1.36301 9.50383
lowerneck -22.7433 1.73931 12.0104
upperneck 26.6277 3.23564 -17.0897
head 13.2417 0.392154 -8.41131
rclavicle 2.38542e-015 9.22361e-014
rhumerus -2.26769 -1.37963 -46.9224
rradius 42.8322
rwrist -16.0441
rhand -18.4815 -1.06245
rfingers 7.12502
rthumb 7.80558 -30.8984
lclavicle 2.38542e-015 9.22361e-014
lhumerus -43.3038 -14.5954 102.254
lradius 47.7639
lwrist 3.82652
lhand -1.25721 -5.98157
lfingers 7.12502
lthumb 24.3857 22.4867
rfemur 2.55695 -2.58832 13.3296
rtibia 18.9915
rfoot -13.9465 -15.3976
rtoes -12.5262
lfemur -22.101 5.22535 -29.0997
ltibia 4.65199
lfoot -0.0927248 13.9209
ltoes -13.3374
756
root 0.0789814 18.2298 -9.33562 5.06364 1.85612 4.29789
lowerback 10.7756 0.362092 11.2411
upperback 0.149518 2.85336 14.8936
thorax -6.27415 1.34703 9.54889
lowerneck -22.7192 1.7456 12.0228
upperneck 26.5664 3.22681 -17.0606
head 13.2088 0.393214 -8.39546
rclavicle 2.8625e-014 6.04305e-014
rhumerus -2.64201 -1.51971 -46.968
rradius 42.8463
rwrist -15.9173
rhand -18.5108 -1.0411
rfingers 7.12502
rthumb 7.77738 -30.8781
lclavicle 2.8625e-014 6.04305e-014
lhumerus -43.1823 -14.629 102.107
lradius 47.7105
lwrist 3.7102
lhand -1.15439 -5.99569
lfingers 7.12502
lthumb 24.4842 22.4593
rfemur 2.88256 -2.44011 13.3961
rtibia 19.3369
rfoot -14.0437 -16.0277
rtoes -12.9011
lfemur -21.9938 5.3782 -29.1992
ltibia 5.17757
lfoot -0.249843 13.447
ltoes -11.929
757
root 0.101238 18.2046 -9.20849 4.936 1.7772 4.29704
lowerback 10.8151 0.349004 11.1279
upperback 0.222262 2.81408 14.88
thorax -6.21643 1.33169 9.60029
lowerneck -22.6806 1.75577 12.042
upperneck 26.491 3.22567 -17.046
head 13.1693 0.396952 -8.38425
rclavicle -1.03368e-014 -1.27222e-014
rhumerus -3.07041 -1.67004 -47.0126
rradius 42.8343
rwrist -15.7773
rhand -18.5453 -1.02255
rfingers 7.12502
rthumb 7.74402 -30.8607
lclavicle -1.03368e-014 -1.27222e-014
lhumerus -43.0609 -14.645 101.956
lradius 47.6384
lwrist 3.58569
lhand -1.15452 -6.046
lfingers 7.12502
lthumb 24.4841 22.409
rfemur 3.21352 -2.29723 13.4223
rtibia 19.7852
rfoot -14.1752 -16.5838
rtoes -13.2935
lfemur -21.7653 5.56495 -29.3082
ltibia 5.6577
lfoot -0.482962 12.7825
ltoes -10.5782
758
root 0.125305 18.1776 -9.07789 4.78681 1.66543 4.32414
lowerback 10.8451 0.342656 10.996
upperback 0.30896 2.77549 14.8561
thorax -6.1378 1.31702 9.64902
lowerneck -22.6532 1.76945 12.0617
upperneck 26.43 3.23449 -17.0461
head 13.1405 0.403158 -8.37977
rclavicle 4.77083e-015 3.49861e-014
rhumerus -3.54268 -1.83369 -47.0556
rradius 42.7906
rwrist -15.6494
rhand -18.5886 -1.02083
rfingers 7.12502
rthumb 7.70221 -30.8606
lclavicle 4.77083e-015 3.49861e-014
lhumerus -42.9299 -14.6476 101.797
lradius 47.5523
lwrist 3.4497
lhand -1.17195 -6.07816
lfingers 7.12502
lthumb 24.4674 22.3791
rfemur 3.53055 -2.16091 13.385
rtibia 20.3351
rfoot -14.3319 -17.0244
rtoes -13.7114
lfemur -21.4268 5.78887 -29.4413
ltibia 6.06658
lfoot -0.741335 11.9466
ltoes -9.43623
759
root 0.15175 18.1497 -8.94344 4.62368 1.51184 4.36776
lowerback 10.8657 0.345556 10.8651
upperback 0.394888 2.74637 14.822
thorax -6.05472 1.30642 9.68337
lowerneck -22.5915 1.78117 12.0816
upperneck 26.3735 3.24731 -17.0556
head 13.1074 0.411203 -8.37813
rclavicle 1.43125e-014 -1.27222e-014
rhumerus -4.08134 -1.99943 -47.0932
rradius 42.7147
rwrist -15.5282
rhand -18.6452 -1.02846
rfingers 7.12502
rthumb 7.64764 -30.8702
lclavicle 1.43125e-014 -1.27222e-014
lhumerus -42.8133 -14.6324 101.638
lradius 47.4562
lwrist 3.31688
lhand -1.1948 -6.08533
lfingers 7.12502
lthumb 24.4455 22.3749
rfemur 3.82503 -2.02022 13.29
rtibia 20.9784
rfoot -14.4765 -17.3337
rtoes -14.2219
lfemur -20.9982 6.05804 -29.59
ltibia 6.39701
lfoot -0.941106 11.0161
ltoes -8.63693
760
root 0.181413 18.1225 -8.80534 4.4653 1.33005 4.448
lowerback 10.8594 0.358046 10.7281
upperback 0.476591 2.72301 14.771
thorax -5.96058 1.29825 9.69961
lowerneck -22.5462 1.77974 12.0604
upperneck 26.3839 3.25122 -17.0303
head 13.1017 0.415367 -8.36191
rclavicle 1.27222e-014 6.04305e-014
rhumerus -4.68253 -2.17327 -47.1226
rradius 42.6089
rwrist -15.4294
rhand -18.7234 -1.05646
rfingers 7.12502
rthumb 7.57209 -30.9009
lclavicle 1.27222e-014 6.04305e-014
lhumerus -42.6994 -14.6026 101.475
lradius 47.3454
lwrist 3.15781
lhand -1.21945 -6.08737
lfingers 7.12502
lthumb 24.4219 22.3761
rfemur 4.08251 -1.90188 13.1017
rtibia 21.7027
rfoot -14.5708 -17.4762
rtoes -14.8719
lfemur -20.5218 6.35176 -29.7811
ltibia 6.65835
lfoot -0.966708 10.0669
ltoes -8.38856
761
root 0.214676 18.0982 -8.66406 4.32288 1.13704 4.57189
lowerback 10.8114 0.374834 10.5926
upperback 0.549119 2.69703 14.6967
thorax -5.85087 1.2881 9.68748
lowerneck -22.4778 1.76667 12.0298
upperneck 26.4535 3.24874 -17.0007
head 13.1138 0.417609 -8.34789
rclavicle -2.38542e-015 -5.40694e-014
rhumerus -5.32738 -2.37799 -47.1545
rradius 42.4513
rwrist -15.3026
rhand -18.8155 -1.08874
rfingers 7.12502
rthumb 7.48327 -30.9364
lclavicle -2.38542e-015 -5.40694e-014
lhumerus -42.5807 -14.5555 101.301
lradius 47.212
lwrist 2.95917
lhand -1.2652 -6.09518
lfingers 7.12502
lthumb 24.378 22.3742
rfemur 4.29402 -1.80692 12.8114
rtibia 22.493
rfoot -14.5797 -17.4541
rtoes -15.6711
lfemur -20.0453 6.64873 -30.0259
ltibia 6.87719
lfoot -0.762303 9.17159
ltoes -8.77155
762
root 0.251945 18.079 -8.52004 4.19953 0.941815 4.74489
lowerback 10.7516 0.386965 10.4447
upperback 0.594829 2.66559 14.6076
thorax -5.76325 1.27497 9.66682
lowerneck -22.3646 1.75197 11.993
upperneck 26.5629 3.25673 -16.977
head 13.1347 0.425044 -8.33594
rclavicle -2.70347e-014 -6.99722e-014
rhumerus -6.02076 -2.56653 -47.1784
rradius 42.2551
rwrist -15.1676
rhand -18.9096 -1.13456
rfingers 7.12502
rthumb 7.39239 -30.9854
lclavicle -2.70347e-014 -6.99722e-014
lhumerus -42.4845 -14.4533 101.123
lradius 47.0718
lwrist 2.72085
lhand -1.29655 -6.11648
lfingers 7.12502
lthumb 24.3479 22.3569
rfemur 4.4506 -1.74031 12.411
rtibia 23.3473
rfoot -14.464 -17.2703
rtoes -16.6489
lfemur -19.6013 6.93687 -30.3349
ltibia 7.07104
lfoot -0.272276 8.37848
ltoes -9.72612
763
root 0.292964 18.0659 -8.37441 4.09939 0.778613 4.97277
lowerback 10.6779 0.381463 10.2846
upperback 0.615677 2.61105 14.5045
thorax -5.6927 1.25035 9.64137
lowerneck -22.2459 1.73666 11.9413
upperneck 26.7268 3.27791 -16.9607
head 13.1794 0.43657 -8.3274
rclavicle 6.36111e-015 7.31528e-014
rhumerus -6.73123 -2.76021 -47.2017
rradius 42.0092
rwrist -14.9786
rhand -19.0122 -1.18787
rfingers 7.12502
rthumb 7.29337 -31.0422
lclavicle 6.36111e-015 7.31528e-014
lhumerus -42.3975 -14.2946 100.939
lradius 46.9331
lwrist 2.45405
lhand -1.3621 -6.13841
lfingers 7.12502
lthumb 24.2851 22.3434
rfemur 4.53798 -1.7136 11.9028
rtibia 24.2862
rfoot -14.2203 -16.9462
rtoes -17.7457
lfemur -19.2049 7.18108 -30.712
ltibia 7.24001
lfoot 0.509733 7.7031
ltoes -11.2838
764
root 0.337066 18.0589 -8.22778 4.01219 0.663615 5.24759
lowerback 10.6037 0.357435 10.1273
upperback 0.614304 2.53644 14.389
thorax -5.64358 1.2154 9.60404
lowerneck -22.1183 1.73547 11.9105
upperneck 26.8911 3.32671 -16.989
head 13.2297 0.457473 -8.3378
rclavicle 0 8.90555e-014
rhumerus -7.4771 -2.96265 -47.2115
rradius 41.7434
rwrist -14.7842
rhand -19.1241 -1.29031
rfingers 7.12502
rthumb 7.18533 -31.1483
lclavicle 0 8.90555e-014
lhumerus -42.311 -14.0909 100.75
lradius 46.7851
lwrist 2.08544
lhand -1.36731 -6.15078
lfingers 7.12502
lthumb 24.2801 22.3317
rfemur 4.54536 -1.7288 11.3043
rtibia 25.3489
rfoot -13.8563 -16.5028
rtoes -18.9231
lfemur -18.8373 7.36924 -31.144
ltibia 7.38144
lfoot 1.48613 7.1348
ltoes -13.0032
765
root 0.38307 18.0568 -8.08152 3.94298 0.61007 5.58161
lowerback 10.5419 0.312257 9.94618
upperback 0.585677 2.43912 14.2661
thorax -5.62996 1.16974 9.57677
lowerneck -22.0083 1.75539 11.9006
upperneck 27.0333 3.41191 -17.0716
head 13.2841 0.489315 -8.36887
rclavicle -1.59028e-015 -6.04305e-014
rhumerus -8.25141 -3.17685 -47.1963
rradius 41.4518
rwrist -14.5293
rhand -19.2013 -1.39041
rfingers 7.12502
rthumb 7.11083 -31.251
lclavicle -1.59028e-015 -6.04305e-014
lhumerus -42.2167 -13.8408 100.565
lradius 46.6193
lwrist 1.66772
lhand -1.35687 -6.16175
lfingers 7.12502
lthumb 24.2901 22.3194
rfemur 4.44188 -1.7923 10.6142
rtibia 26.5799
rfoot -13.3907 -15.9587
rtoes -20.1027
lfemur -18.4906 7.48799 -31.6397
ltibia 7.50581
lfoot 2.47729 6.64754
ltoes -14.4152
